<svg xmlns="http://www.w3.org/2000/svg" version="1.1" xmlns:xlink="http://www.w3.org/1999/xlink" xmlns:svgjs="http://svgjs.dev/svgjs" width="2000" height="1247" viewBox="0 0 2000 1247"><g transform="matrix(1,0,0,1,-1.2121212121212466,0.504858299595071)"><svg viewBox="0 0 396 247" data-background-color="#102e44" preserveAspectRatio="xMidYMid meet" height="1247" width="2000" xmlns="http://www.w3.org/2000/svg" xmlns:xlink="http://www.w3.org/1999/xlink"><g id="tight-bounds" transform="matrix(1,0,0,1,0.2400000000000091,-0.09999999999999432)"><svg viewBox="0 0 395.52 247.2" height="247.2" width="395.52"><g><svg></svg></g><g><svg viewBox="0 0 395.52 247.2" height="247.2" width="395.52"><g transform="matrix(1,0,0,1,75.54432,107.35871362126245)"><svg viewBox="0 0 244.43135999999998 32.482572757475076" height="32.482572757475076" width="244.43135999999998" style="stroke-width:10"><g><svg viewBox="0 0 244.43135999999998 32.482572757475076" height="32.482572757475076" width="244.43135999999998"><g><svg viewBox="0 0 244.43135999999998 32.482572757475076" height="32.482572757475076" width="244.43135999999998"><g><svg viewBox="0 0 244.43135999999998 32.482572757475076" height="32.482572757475076" width="244.43135999999998"><g id="textblocktransform"><svg viewBox="0 0 244.43135999999998 32.482572757475076" height="32.482572757475076" width="244.43135999999998" id="textblock"><g><svg viewBox="0 0 244.43135999999998 32.482572757475076" height="32.482572757475076" width="244.43135999999998"><g transform="matrix(1,0,0,1,0,0)"><svg width="244.43135999999998" viewBox="0.6000000238418579 -35.5 270.8599853515625 36" height="32.482572757475076" data-palette-color="#ffffff"><path d="M6.35 0L6.35-30 0.6-30 0.6-35 17.6-35 17.6-30 11.85-30 11.85 0 6.35 0ZM20.25 0L20.25-35 28.4-35Q32.65-35 34.6-33.02 36.55-31.05 36.55-26.95L36.55-26.95 36.55-24.8Q36.55-19.35 32.95-17.9L32.95-17.9 32.95-17.8Q34.95-17.2 35.77-15.35 36.6-13.5 36.6-10.4L36.6-10.4 36.6-4.25Q36.6-2.75 36.7-1.83 36.8-0.9 37.2 0L37.2 0 31.6 0Q31.3-0.85 31.2-1.6 31.1-2.35 31.1-4.3L31.1-4.3 31.1-10.7Q31.1-13.1 30.32-14.05 29.55-15 27.65-15L27.65-15 25.75-15 25.75 0 20.25 0ZM25.75-20L27.75-20Q29.4-20 30.22-20.85 31.05-21.7 31.05-23.7L31.05-23.7 31.05-26.4Q31.05-28.3 30.37-29.15 29.7-30 28.25-30L28.25-30 25.75-30 25.75-20ZM38.95 0L44.64-35 52.09-35 57.8 0 52.3 0 51.3-6.95 51.3-6.85 45.05-6.85 44.05 0 38.95 0ZM45.7-11.6L50.64-11.6 48.2-28.9 48.09-28.9 45.7-11.6ZM62.89 0L57.59-35 63.14-35 66.74-7.85 66.84-7.85 70.44-35 75.49-35 70.19 0 62.89 0ZM78.14 0L78.14-35 93.14-35 93.14-30 83.64-30 83.64-20.75 91.19-20.75 91.19-15.75 83.64-15.75 83.64-5 93.14-5 93.14 0 78.14 0ZM96.29 0L96.29-35 101.79-35 101.79-5 110.84-5 110.84 0 96.29 0ZM121.48 0L121.48-35 129.58-35Q133.68-35 135.73-32.8 137.78-30.6 137.78-26.35L137.78-26.35 137.78-22.9Q137.78-18.65 135.73-16.45 133.68-14.25 129.58-14.25L129.58-14.25 126.98-14.25 126.98 0 121.48 0ZM126.98-19.25L129.58-19.25Q130.93-19.25 131.61-20 132.28-20.75 132.28-22.55L132.28-22.55 132.28-26.7Q132.28-28.5 131.61-29.25 130.93-30 129.58-30L129.58-30 126.98-30 126.98-19.25ZM140.78 0L140.78-35 146.28-35 146.28 0 140.78 0ZM150.38 0L150.38-35 157.28-35 162.63-14.05 162.73-14.05 162.73-35 167.63-35 167.63 0 161.98 0 155.38-25.55 155.28-25.55 155.28 0 150.38 0ZM187.52 0.5Q183.52 0.5 181.42-1.78 179.32-4.05 179.32-8.3L179.32-8.3 179.32-26.7Q179.32-30.95 181.42-33.23 183.52-35.5 187.52-35.5L187.52-35.5Q191.52-35.5 193.62-33.23 195.72-30.95 195.72-26.7L195.72-26.7 195.72-23.7 190.52-23.7 190.52-27.05Q190.52-30.5 187.67-30.5L187.67-30.5Q184.82-30.5 184.82-27.05L184.82-27.05 184.82-7.9Q184.82-4.5 187.67-4.5L187.67-4.5Q190.52-4.5 190.52-7.9L190.52-7.9 190.52-14.75 187.77-14.75 187.77-19.75 195.72-19.75 195.72-8.3Q195.72-4.05 193.62-1.78 191.52 0.5 187.52 0.5L187.52 0.5ZM199.27 0L199.27-35 204.77-35 204.77-5 213.82-5 213.82 0 199.27 0ZM224.22 0.5Q220.17 0.5 218.02-1.8 215.87-4.1 215.87-8.3L215.87-8.3 215.87-26.7Q215.87-30.9 218.02-33.2 220.17-35.5 224.22-35.5L224.22-35.5Q228.27-35.5 230.42-33.2 232.57-30.9 232.57-26.7L232.57-26.7 232.57-8.3Q232.57-4.1 230.42-1.8 228.27 0.5 224.22 0.5L224.22 0.5ZM224.22-4.5Q227.07-4.5 227.07-7.95L227.07-7.95 227.07-27.05Q227.07-30.5 224.22-30.5L224.22-30.5Q221.37-30.5 221.37-27.05L221.37-27.05 221.37-7.95Q221.37-4.5 224.22-4.5L224.22-4.5ZM236.27 0L236.27-35 244.57-35Q248.82-35 250.77-33.02 252.72-31.05 252.72-26.95L252.72-26.95 252.72-25.55Q252.72-22.85 251.84-21.15 250.97-19.45 249.17-18.7L249.17-18.7 249.17-18.6Q253.27-17.2 253.27-11.3L253.27-11.3 253.27-8.3Q253.27-4.25 251.14-2.13 249.02 0 244.92 0L244.92 0 236.27 0ZM241.77-20.75L243.92-20.75Q245.57-20.75 246.39-21.6 247.22-22.45 247.22-24.45L247.22-24.45 247.22-26.4Q247.22-28.3 246.54-29.15 245.87-30 244.42-30L244.42-30 241.77-30 241.77-20.75ZM241.77-5L244.92-5Q246.37-5 247.07-5.78 247.77-6.55 247.77-8.45L247.77-8.45 247.77-11.5Q247.77-13.9 246.94-14.83 246.12-15.75 244.22-15.75L244.22-15.75 241.77-15.75 241.77-5ZM256.46 0L256.46-35 271.46-35 271.46-30 261.96-30 261.96-20.75 269.51-20.75 269.51-15.75 261.96-15.75 261.96-5 271.46-5 271.46 0 256.46 0Z" opacity="1" transform="matrix(1,0,0,1,0,0)" fill="#000000" class="undefined-text-0" data-fill-palette-color="primary" id="text-0"></path></svg></g></svg></g></svg></g></svg></g></svg></g></svg></g></svg></g><path d="M217.806 101.359L217.806 37.673 389.66 37.673 389.66 209.527 217.806 209.527 217.806 145.841 220.736 145.841 220.736 206.598 386.731 206.598 386.731 40.602 220.736 40.602 220.736 101.359Z" fill="#000000" stroke="transparent" data-fill-palette-color="primary"></path></svg></g><defs></defs></svg><rect width="395.52" height="247.2" fill="none" stroke="none" visibility="hidden"></rect></g></svg></g></svg>