<svg xmlns="http://www.w3.org/2000/svg" version="1.1" xmlns:xlink="http://www.w3.org/1999/xlink" xmlns:svgjs="http://svgjs.dev/svgjs" width="1000" height="186" viewBox="0 0 1000 186"><g transform="matrix(1,0,0,1,-0.6056348047761162,0.19333316193038286)"><svg viewBox="0 0 396 74" data-background-color="#77d4fc" preserveAspectRatio="xMidYMid meet" height="186" width="1000" xmlns="http://www.w3.org/2000/svg" xmlns:xlink="http://www.w3.org/1999/xlink"><g id="tight-bounds" transform="matrix(1,0,0,1,0.24008861730862918,-0.07691749453144325)"><svg viewBox="0 0 395.52 74.15367839843204" height="74.15367839843204" width="395.52"><g><svg viewBox="0 0 395.52 74.15367839843204" height="74.15367839843204" width="395.52"><g><svg viewBox="0 0 395.52 74.15367839843204" height="74.15367839843204" width="395.52"><g id="textblocktransform"><svg viewBox="0 0 395.52 74.15367839843204" height="74.15367839843204" width="395.52" id="textblock"><g><svg viewBox="0 0 395.52 74.15367839843204" height="74.15367839843204" width="395.52"><path d="M394.594 15.905C392.735 8.207 387.435 6.068 387.435 6.068 371.165-1.86 350.86-0.152 332.619 0.988 300.414 1.034 268.339 2.727 236.208 3.635 168.767 3.774 100.749 1.496 33.643 7.114 27.339 8.839-6.54 7.453 1.121 16.89 3.129 20.815 10.456 25.172 10.232 28.774 11.236 29.405 12.631 27.958 13.226 28.867 15.309 31.314 18.711 30.16 21.501 31.607 17.614 35.471 20.403 38.688 23.062 42.059 18.377 42.937 12.371 42.521 9.675 45.431 9.396 47.54 7.89 47.139 6.235 47.047 5.026 46.986 2.59 47.216 2.999 47.878 4.394 50.141-1.594 51.45 2.162 53.667-0.422 56.068 3.948 58.146 3.353 60.748 3.278 61.271 3.687 61.718 4.338 61.841 7.22 62.503 3.018 63.796 3.464 65.197 33.029 74.772 65.104 68.153 95.394 72.555 103.259 69.477 97.346 73.648 100.489 73.002 102.943 72.248 104.728 75.373 107.499 73.602 107.927 73.094 107.276 71.893 108.8 72.124 109.6 72.248 110.307 72.217 110.418 71.509 110.586 70.446 109.117 71.108 108.726 70.554 112.947 67.752 111.906 74.418 115.866 74.141 115.68 73.325 114.528 72.155 116.889 72.309 119.232 71.139 119.306 70.169 121.389 72.802 121.463 73.371 121.835 73.772 122.43 74.049 128.938 71.185 135.409 75.065 142.233 73.772 146.417 72.355 150.433 74.541 154.672 74.002 156.16 73.571 157.666 72.802 159.098 74.095 176.632 74.372 195.319 73.217 211.943 74.141 256.364 72.417 303.835 74.849 350.674 72.571 361.719 71.693 373.192 70.446 383.958 69.446 383.958 69.446 392.679 66.706 392.679 54.39S394.538 43.614 394.817 33.808C395.096 24.002 396.398 23.602 394.538 15.905Z" opacity="1" fill="#000000" data-fill-palette-color="tertiary"></path><g transform="matrix(1,0,0,1,55.76832,26.230666666666668)"><svg width="283.98335999999995" viewBox="1.1299999952316284 -35.52000045776367 476.1600036621094 36.369998931884766" height="21.692345065098696" data-palette-color="#77d4fc"><path d="M28.33-28.38L19.05-28.38 19.05 0 10.85 0 10.85-28.38 1.13-28.38 1.13-34.65 29.18-34.65 28.33-28.38ZM58.07-24.13L58.07-24.13Q58.07-21.65 57.15-19.8 56.22-17.95 54.65-16.68 53.07-15.4 51.12-14.63L51.12-14.63 60.2 0 50.92 0 43.42-13.25 41.1-13.25 41.1 0 32.9 0 32.9-34.65 43.8-34.65Q50.87-34.65 54.47-32.08 58.07-29.5 58.07-24.13ZM49.62-24.13L49.62-24.13Q49.62-26.63 48.16-27.76 46.7-28.9 43.82-28.9L43.82-28.9 41.1-28.9 41.1-18.88 44.15-18.88Q46.82-18.88 48.22-20.13 49.62-21.38 49.62-24.13ZM81.82 0L80-7.48 69.84-7.48 68.02 0 59.45 0 70.05-34.65 80-34.65 90.59 0 81.82 0ZM74.9-28.75L71.15-13.43 78.65-13.43 74.9-28.75ZM98.67-34.65L105.14-6.4 111.67-34.65 120.07-34.65 110.07 0 99.92 0 89.97-34.65 98.67-34.65ZM146.47-28.8L132.84-28.8 132.84-20.48 144.84-20.48 144.84-14.73 132.84-14.73 132.84-5.88 147.31-5.88 147.31 0 124.64 0 124.64-34.65 147.29-34.65 146.47-28.8ZM177.01 0L154.64 0 154.64-34.65 162.84-34.65 162.84-6.48 177.86-6.48 177.01 0ZM230.36-23.35L230.36-23.35Q230.36-25.2 229.67-26.41 228.98-27.63 227.6-28.21 226.21-28.8 224.11-28.8L224.11-28.8 221.31-28.8 221.31-17.48 224.53-17.48Q226.36-17.48 227.66-18.1 228.96-18.73 229.66-20.03 230.36-21.33 230.36-23.35ZM238.81-23.38L238.81-23.38Q238.81-19.35 237.08-16.73 235.36-14.1 232.26-12.81 229.16-11.53 225.06-11.53L225.06-11.53 221.31-11.53 221.31 0 213.11 0 213.11-34.65 224.01-34.65Q231.06-34.65 234.93-31.85 238.81-29.05 238.81-23.38ZM243.73-34.65L266.23-34.65 266.23-28.65 259.08-28.65 259.08-6.03 266.23-6.03 266.23 0 243.73 0 243.73-6.03 250.88-6.03 250.88-28.65 243.73-28.65 243.73-34.65ZM297.38 0L287.43 0 278.3-27.88Q278.48-26.75 278.69-25.16 278.9-23.58 279.1-21.64 279.3-19.7 279.43-17.53 279.55-15.35 279.55-13.08L279.55-13.08 279.55 0 272.58 0 272.58-34.65 282.8-34.65 291.65-6.93Q291.38-8.5 291.09-10.69 290.8-12.88 290.6-15.58 290.4-18.28 290.4-21.38L290.4-21.38 290.4-34.65 297.38-34.65 297.38 0ZM346.25 0.85L346.25 0.85Q341.32 0.85 337.95-1.24 334.57-3.33 332.84-7.39 331.1-11.45 331.1-17.4L331.1-17.4Q331.1-21.83 332.34-25.21 333.57-28.6 335.77-30.89 337.97-33.18 340.9-34.35 343.82-35.52 347.2-35.52L347.2-35.52Q351-35.52 353.6-34.35 356.2-33.18 358.22-31.25L358.22-31.25 353.92-26.8Q352.35-28.2 350.9-28.88 349.45-29.55 347.6-29.55L347.6-29.55Q345.85-29.55 344.39-28.86 342.92-28.18 341.84-26.71 340.75-25.25 340.15-22.94 339.55-20.63 339.55-17.35L339.55-17.35Q339.55-12.83 340.29-10.15 341.02-7.48 342.52-6.31 344.02-5.15 346.32-5.15L346.32-5.15Q347.55-5.15 348.62-5.44 349.7-5.73 350.62-6.2L350.62-6.2 350.62-14.13 346.27-14.13 345.47-19.88 358.37-19.88 358.37-2.65Q355.77-1.05 352.79-0.1 349.8 0.85 346.25 0.85ZM387 0L364.62 0 364.62-34.65 372.82-34.65 372.82-6.48 387.85-6.48 387 0ZM418.84-17.35L418.84-17.35Q418.84-11.85 417.27-7.76 415.69-3.68 412.61-1.41 409.52 0.85 404.97 0.85L404.97 0.85Q400.44 0.85 397.34-1.36 394.24-3.58 392.67-7.65 391.09-11.73 391.09-17.35L391.09-17.35Q391.09-22.85 392.67-26.93 394.24-31 397.34-33.26 400.44-35.52 404.97-35.52L404.97-35.52Q409.52-35.52 412.61-33.33 415.69-31.13 417.27-27.05 418.84-22.98 418.84-17.35ZM410.44-17.35L410.44-17.35Q410.44-23.75 409.17-26.65 407.89-29.55 404.97-29.55L404.97-29.55Q402.04-29.55 400.77-26.64 399.49-23.73 399.49-17.35L399.49-17.35Q399.49-10.95 400.79-8.05 402.09-5.15 404.97-5.15L404.97-5.15Q407.97-5.15 409.21-8.09 410.44-11.03 410.44-17.35ZM440.07-10.48L440.07-10.48Q440.07-12.3 439.35-13.36 438.64-14.43 437.35-14.88 436.07-15.33 434.34-15.33L434.34-15.33 430.97-15.33 430.97-5.98 433.99-5.98Q435.19-5.98 436.28-6.15 437.37-6.33 438.23-6.8 439.09-7.28 439.58-8.16 440.07-9.05 440.07-10.48ZM438.77-24.98L438.77-24.98Q438.77-27.03 437.48-27.94 436.19-28.85 433.49-28.85L433.49-28.85 430.97-28.85 430.97-20.83 433.74-20.83Q436.39-20.83 437.58-21.8 438.77-22.78 438.77-24.98ZM448.52-10.15L448.52-10.15Q448.52-7.15 447.37-5.18 446.22-3.2 444.22-2.08 442.22-0.95 439.65-0.48 437.09 0 434.27 0L434.27 0 422.77 0 422.77-34.65 433.74-34.65Q436.42-34.65 438.8-34.21 441.19-33.77 443.04-32.76 444.89-31.75 445.95-30.04 447.02-28.33 447.02-25.8L447.02-25.8Q447.02-23.73 446.14-22.21 445.27-20.7 443.82-19.74 442.37-18.78 440.67-18.35L440.67-18.35Q442.52-18.05 444.33-17.19 446.14-16.32 447.33-14.63 448.52-12.93 448.52-10.15ZM476.44-28.8L462.81-28.8 462.81-20.48 474.81-20.48 474.81-14.73 462.81-14.73 462.81-5.88 477.29-5.88 477.29 0 454.61 0 454.61-34.65 477.26-34.65 476.44-28.8Z" opacity="1" transform="matrix(1,0,0,1,0,0)" fill="#ffffff" class="undefined-text-0" data-fill-palette-color="quaternary" id="text-0"></path></svg></g></svg></g></svg></g></svg></g><g></g></svg></g><defs></defs></svg><rect width="395.52" height="74.15367839843204" fill="none" stroke="none" visibility="hidden"></rect></g></svg></g></svg>