<svg xmlns="http://www.w3.org/2000/svg" version="1.1" xmlns:xlink="http://www.w3.org/1999/xlink" xmlns:svgjs="http://svgjs.dev/svgjs" width="1000" height="625" viewBox="0 0 1000 625"><g transform="matrix(1,0,0,1,0,0)"><svg viewBox="0 0 512 320" data-background-color="#ffffff" preserveAspectRatio="xMidYMid meet" height="625" width="1000" xmlns="http://www.w3.org/2000/svg" xmlns:xlink="http://www.w3.org/1999/xlink"><g id="tight-bounds" transform="matrix(1,0,0,1,0,0)"><svg viewBox="0 0 512 320" height="320" width="512"><g><svg></svg></g><g><svg viewBox="0 0 512 320" height="320" width="512"><g><path xmlns="http://www.w3.org/2000/svg" d="M96 160c0-88.366 71.634-160 160-160 88.366 0 160 71.634 160 160 0 88.366-71.634 160-160 160-88.366 0-160-71.634-160-160z" fill="#000000" fill-rule="nonzero" stroke="none" stroke-width="1" stroke-linecap="butt" stroke-linejoin="miter" stroke-miterlimit="10" stroke-dasharray="" stroke-dashoffset="0" font-family="none" font-weight="none" font-size="none" text-anchor="none" style="mix-blend-mode: normal" data-fill-palette-color="tertiary"></path></g><g transform="matrix(1,0,0,1,153.6,118.25537496589442)"><svg viewBox="0 0 204.8 83.48925006821116" height="83.48925006821116" width="204.8"><g><svg viewBox="0 0 356.23788839373526 145.22477611267607" height="83.48925006821116" width="204.8"><g><rect width="3.9886266021859162" height="145.22477611267607" x="137.00783089577465" y="0" fill="#000000" opacity="1" stroke-width="0" stroke="transparent" fill-opacity="1" class="rect-o-0" data-fill-palette-color="primary" rx="1%" id="o-0" data-palette-color="#111111"></rect></g><g transform="matrix(1,0,0,1,151.43788839373522,0.3612556619718248)"><svg viewBox="0 0 204.8 144.50226478873242" height="144.50226478873242" width="204.8"><g id="textblocktransform"><svg viewBox="0 0 204.8 144.50226478873242" height="144.50226478873242" width="204.8" id="textblock"><g><svg viewBox="0 0 204.8 144.50226478873242" height="144.50226478873242" width="204.8"><g transform="matrix(1,0,0,1,0,0)"><svg width="204.8" viewBox="1.049999475479126 -33.08000183105469 156.00999450683594 107.07000732421875" height="144.50226478873242" data-palette-color="#ffffff"><svg></svg><svg></svg><svg></svg><g class="undefined-text-0" data-fill-palette-color="quaternary" id="text-0"><path xmlns="http://www.w3.org/2000/svg" d="M15.92-27v27.15c-0.78-0.1-2.79-0.15-6.03-0.15v0h-0.78v-27h-4.84c-1.433 0-2.28 0.073-2.54 0.22-0.26 0.147-0.463 0.277-0.61 0.39v0l-0.07-0.03v-6.25l0.07-0.07c0.54 0.18 1.99 0.27 4.35 0.27v0h15.31c1.427 0 2.273-0.073 2.54-0.22 0.26-0.147 0.463-0.277 0.61-0.39v0l0.07 0.02v6.25l-0.07 0.08c-0.54-0.18-1.99-0.27-4.35-0.27v0zM45.41 0.2l-5.66-12.82c-0.493 0.033-1.017 0.05-1.57 0.05-0.553 0-1.373-0.043-2.46-0.13v0 12.7h-6.47v-32.64c2.28-0.293 5.08-0.44 8.4-0.44v0c4.52 0 7.893 0.833 10.12 2.5 2.22 1.667 3.33 4.243 3.33 7.73v0c0 2.7-1.017 5.01-3.05 6.93v0c-0.667 0.62-1.433 1.157-2.3 1.61v0l4.98 10.5c0.98 2.167 1.73 3.453 2.25 3.86v0l-0.12 0.12c-1.58-0.26-4.063-0.25-7.45 0.03zM38.11-27.32v0c-0.827 0-1.623 0.04-2.39 0.12v0 9.33c0.793 0.113 1.73 0.17 2.81 0.17 1.073 0 1.977-0.093 2.71-0.28 0.727-0.187 1.36-0.477 1.9-0.87v0c1.153-0.86 1.73-2.153 1.73-3.88 0-1.727-0.6-2.94-1.8-3.64v0c-1.127-0.633-2.78-0.95-4.96-0.95zM63.04-7.03l-2.3 7.23c-1.4-0.133-3.037-0.2-4.91-0.2v0h-1.92l10.62-29.76c0.467-1.333 0.7-2.11 0.7-2.33 0-0.22-0.007-0.357-0.02-0.41v0l0.02-0.04c1.06 0.047 2.183 0.07 3.37 0.07v0c0.98 0 2.153-0.017 3.52-0.05v0l0.02 0.05c-0.033 0.067-0.05 0.157-0.05 0.27v0c0 0.307 0.247 1.127 0.74 2.46v0l10.84 29.81c-0.327-0.013-0.71-0.02-1.15-0.02v0c0 0-0.423-0.017-1.27-0.05v0c-0.407 0-0.773 0-1.1 0v0h-3.78l-2.3-7.03zM64.89-12.89h7.28l-3.69-11.35zM101.54 0.02l-0.05 0.08c-0.52-0.067-1.373-0.1-2.56-0.1v0h-2.69c-0.44 0-0.84 0.017-1.2 0.05v0l-0.02-0.05c0.067-0.113 0.1-0.243 0.1-0.39 0-0.147-0.013-0.3-0.04-0.46-0.027-0.167-0.097-0.46-0.21-0.88-0.113-0.427-0.29-1.037-0.53-1.83v0l-1.03-3.28-9.08-25.73c1.007 0.067 2.293 0.1 3.86 0.1 1.56 0 2.56-0.067 3-0.2v0l7.35 22.2 6.44-22.1c0.98 0.067 2.187 0.1 3.62 0.1v0c1.953 0 3.09-0.067 3.41-0.2v0l-8.91 25.76c0 0-0.283 0.953-0.85 2.86v0c-0.473 1.627-0.71 2.68-0.71 3.16 0 0.48 0.033 0.783 0.1 0.91zM123.1-5.86h9.96c1.007 0 1.707-0.097 2.1-0.29v0l0.09 0.02-0.24 6.13h-18.29v-32.64c0.44 0.033 0.93 0.057 1.47 0.07v0l1.71 0.05c1.14 0.033 2.377 0.05 3.71 0.05v0c3.727 0 7.413-0.067 11.06-0.2v0c-0.18 1.433-0.27 3.347-0.27 5.74v0c0 0.26 0.017 0.457 0.05 0.59v0l-0.05 0.07c-0.847-0.247-2.05-0.37-3.61-0.37v0h-7.69v6.23h5.78c1.793 0 2.867-0.05 3.22-0.15v0l0.08 6.03c-0.78-0.08-1.79-0.12-3.03-0.12v0h-6.05zM148.85 0h-2.32c-2.393 0-3.98 0.05-4.76 0.15v0-32.77c0.393 0.1 1.203 0.15 2.43 0.15 1.227 0 2.657-0.033 4.29-0.1v0 26.71h5.05c1.467 0 2.64-0.05 3.52-0.15v0c-0.12 3.813-0.18 5.793-0.18 5.94v0 0.24c-1.593-0.113-4.27-0.17-8.03-0.17z" fill="#ffffff" fill-rule="nonzero" stroke="none" stroke-width="1" stroke-linecap="butt" stroke-linejoin="miter" stroke-miterlimit="10" stroke-dasharray="" stroke-dashoffset="0" font-family="none" font-weight="none" font-size="none" text-anchor="none" style="mix-blend-mode: normal" data-fill-palette-color="quaternary" opacity="1"></path><path xmlns="http://www.w3.org/2000/svg" d="M3.74 36.69v-32.64c2.26-0.293 4.577-0.44 6.95-0.44v0c4.427 0 7.793 1.037 10.1 3.11 2.3 2.073 3.45 5.18 3.45 9.32v0c0 3.693-1.26 6.613-3.78 8.76v0c-2.36 2.02-5.397 3.03-9.11 3.03v0c-0.42 0-0.883-0.027-1.39-0.08v0 8.94zM11.43 9.49v0c-0.493 0-0.983 0.017-1.47 0.05v0 12.84c0.52 0.067 1.157 0.1 1.91 0.1 0.747 0 1.527-0.16 2.34-0.48 0.813-0.313 1.497-0.757 2.05-1.33v0c1.153-1.187 1.73-2.747 1.73-4.68v0c0-4.333-2.187-6.5-6.56-6.5zM30 36.69v-32.57c1.633 0.067 2.62 0.1 2.96 0.1v0h1.76c0.86 0 1.55-0.067 2.07-0.2v0l-0.02 32.67zM52.54 36.69h-6.37c0.093-0.553 0.14-1.157 0.14-1.81v0-30.66h4.89l12.94 20.36v-18.7c0-0.893-0.083-1.447-0.25-1.66v0h6.59c-0.08 0.653-0.12 1.37-0.12 2.15v0 30.32h-5.08l-12.74-19.56z" fill="#ffffff" fill-rule="nonzero" stroke="none" stroke-width="1" stroke-linecap="butt" stroke-linejoin="miter" stroke-miterlimit="10" stroke-dasharray="" stroke-dashoffset="0" font-family="none" font-weight="none" font-size="none" text-anchor="none" style="mix-blend-mode: normal" data-fill-palette-color="quaternary" opacity="1"></path><path xmlns="http://www.w3.org/2000/svg" d="M30.88 53.75l0.08 0.05c-0.313 0.553-0.47 1.88-0.47 3.98v0 7.57c0 2.293-1.187 4.287-3.56 5.98v0c-2.46 1.773-5.47 2.66-9.03 2.66v0c-4.953 0-8.903-1.553-11.85-4.66v0c-2.847-2.967-4.27-6.743-4.27-11.33v0c0-4.887 1.45-8.957 4.35-12.21v0c3.24-3.66 7.7-5.49 13.38-5.49v0c3.793 0 6.797 0.733 9.01 2.2v0l-0.39 7.2-0.2 0.05c-0.567-0.993-1.69-1.807-3.37-2.44v0c-1.593-0.607-3.267-0.91-5.02-0.91-1.747 0-3.277 0.277-4.59 0.83-1.307 0.553-2.417 1.343-3.33 2.37v0c-1.92 2.1-2.88 4.877-2.88 8.33v0c0 3.007 0.847 5.423 2.54 7.25v0c1.693 1.807 3.873 2.71 6.54 2.71v0c2.947 0 4.933-0.767 5.96-2.3v0c0.327-0.487 0.49-1.04 0.49-1.66v0-4.05h-3.15c-1.693 0-2.613 0.147-2.76 0.44v0l-0.07-0.03-0.22-6.37c0.453 0.133 2.3 0.2 5.54 0.2v0h2.88c1.787 0 3.25-0.123 4.39-0.37zM44.58 73.38h-2.32c-2.393 0-3.98 0.05-4.76 0.15v0-32.77c0.393 0.1 1.203 0.15 2.43 0.15 1.227 0 2.653-0.033 4.28-0.1v0 26.71h5.06c1.46 0 2.63-0.05 3.51-0.15v0c-0.113 3.813-0.17 5.793-0.17 5.94v0 0.24c-1.593-0.113-4.27-0.17-8.03-0.17zM61.04 69.52c-1.487-1.413-2.657-3.113-3.51-5.1-0.853-1.987-1.28-4.163-1.28-6.53 0-2.367 0.4-4.61 1.2-6.73 0.793-2.113 1.93-3.977 3.41-5.59 1.487-1.607 3.28-2.887 5.38-3.84 2.093-0.953 4.443-1.43 7.05-1.43v0c4.493 0 8.277 1.417 11.35 4.25v0c3.293 3.027 4.94 7.11 4.94 12.25v0c0 4.98-1.693 9.123-5.08 12.43v0c-2.087 2.033-4.57 3.433-7.45 4.2v0c-1.413 0.373-3.07 0.56-4.97 0.56-1.893 0-3.837-0.39-5.83-1.17-1.993-0.78-3.73-1.88-5.21-3.3zM63.04 57.56v0c0 1.513 0.25 2.903 0.75 4.17 0.507 1.273 1.207 2.367 2.1 3.28v0c1.907 1.92 4.357 2.88 7.35 2.88v0c2.847 0 5.133-0.92 6.86-2.76v0c1.76-1.907 2.64-4.503 2.64-7.79v0c0-3.093-0.84-5.673-2.52-7.74v0c-1.807-2.213-4.28-3.32-7.42-3.32v0c-3.04 0-5.457 1.123-7.25 3.37v0c-1.673 2.1-2.51 4.737-2.51 7.91zM116.37 71c-1.193 0.953-2.743 1.69-4.65 2.21-1.907 0.52-4.247 0.78-7.02 0.78-2.773 0-5.723-0.253-8.85-0.76v0-32.17c3.16-0.507 5.897-0.76 8.21-0.76 2.32 0 4.227 0.22 5.72 0.66 1.487 0.44 2.703 1.033 3.65 1.78v0c1.853 1.447 2.78 3.323 2.78 5.63 0 2.3-0.837 4.207-2.51 5.72v0c1.98 0.62 3.517 1.793 4.61 3.52v0c0.993 1.547 1.49 3.26 1.49 5.14 0 1.88-0.273 3.487-0.82 4.82-0.547 1.333-1.417 2.477-2.61 3.43zM102.32 45.57v7.62c0.68 0.113 1.533 0.17 2.56 0.17 1.027 0 1.87-0.133 2.53-0.4 0.66-0.273 1.17-0.613 1.53-1.02v0c0.58-0.667 0.87-1.593 0.87-2.78v0c0-2.487-1.463-3.73-4.39-3.73v0c-1.24 0-2.273 0.047-3.1 0.14zM105.93 58.41v0c-1.367 0-2.57 0.09-3.61 0.27v0 9.6c1.14 0.293 2.337 0.44 3.59 0.44 1.253 0 2.357-0.15 3.31-0.45 0.947-0.307 1.747-0.72 2.4-1.24v0c1.32-1.073 1.98-2.44 1.98-4.1v0c0-3.013-2.557-4.52-7.67-4.52zM131.45 67.52h9.96c1.007 0 1.707-0.097 2.1-0.29v0l0.09 0.02-0.24 6.13h-18.29v-32.64c0.44 0.033 0.93 0.057 1.47 0.07v0l1.71 0.05c1.14 0.033 2.377 0.05 3.71 0.05v0c3.727 0 7.413-0.067 11.06-0.2v0c-0.18 1.433-0.27 3.347-0.27 5.74v0c0 0.26 0.017 0.457 0.05 0.59v0l-0.05 0.07c-0.847-0.247-2.05-0.37-3.61-0.37v0h-7.69v6.23h5.78c1.793 0 2.867-0.05 3.22-0.15v0l0.08 6.03c-0.78-0.08-1.79-0.12-3.03-0.12v0h-6.05z" fill="#ffffff" fill-rule="nonzero" stroke="none" stroke-width="1" stroke-linecap="butt" stroke-linejoin="miter" stroke-miterlimit="10" stroke-dasharray="" stroke-dashoffset="0" font-family="none" font-weight="none" font-size="none" text-anchor="none" style="mix-blend-mode: normal" data-fill-palette-color="quaternary" opacity="1"></path></g></svg></g></svg></g></svg></g></svg></g><g transform="matrix(1,0,0,1,0,18.503764178182948)"><svg viewBox="0 0 126.5664 108.21724775631017" height="108.21724775631017" width="126.5664"><g><svg xmlns="http://www.w3.org/2000/svg" xmlns:xlink="http://www.w3.org/1999/xlink" version="1.1" x="0" y="0" viewBox="0.7373538017272949 7.900000095367432 98.4768295288086 84.20000457763672" enable-background="new 0 0 100 100" xml:space="preserve" height="108.21724775631017" width="126.5664" class="icon-icon-0" data-fill-palette-color="quaternary" id="icon-0"><path d="M64.8 41L39.4 8.3c-0.2-0.2-0.5-0.4-0.8-0.4H28.2c-0.4 0-0.7 0.4-0.6 0.8L39 41.6 18.9 42l-10-12.4c-0.2-0.2-0.5-0.4-0.8-0.4H1.4c-0.4 0-0.7 0.4-0.6 0.9l7.8 19.6c0.1 0.3 0.1 0.5 0 0.8L0.8 69.9c-0.2 0.4 0.1 0.9 0.6 0.9h6.7c0.3 0 0.6-0.1 0.8-0.4l9.9-12.3 20.1 0.4L27.6 91.3c-0.1 0.4 0.2 0.8 0.6 0.8h10.4c0.3 0 0.6-0.1 0.8-0.4l25.4-32.7L89 59.5c5.2 0.1 10-3.8 10.2-9 0.3-5.5-4.2-10.1-9.7-10L64.8 41z" fill="#ffffff" data-fill-palette-color="quaternary"></path></svg></g></svg></g></svg></g></svg></g></svg></g><defs></defs></svg><rect width="512" height="320" fill="none" stroke="none" visibility="hidden"></rect></g></svg></g></svg>