<svg xmlns="http://www.w3.org/2000/svg" version="1.1" xmlns:xlink="http://www.w3.org/1999/xlink" xmlns:svgjs="http://svgjs.dev/svgjs" width="1000" height="625" viewBox="0 0 1000 625"><g transform="matrix(1,0,0,1,0,0)"><svg viewBox="0 0 512 320" data-background-color="#000000" preserveAspectRatio="xMidYMid meet" height="625" width="1000" xmlns="http://www.w3.org/2000/svg" xmlns:xlink="http://www.w3.org/1999/xlink"><g id="tight-bounds" transform="matrix(1,0,0,1,0,0)"><svg viewBox="0 0 512 320" height="320" width="512"><g><svg></svg></g><g><svg viewBox="0 0 512 320" height="320" width="512"><g><path xmlns="http://www.w3.org/2000/svg" d="M96 160c0-88.366 71.634-160 160-160 88.366 0 160 71.634 160 160 0 88.366-71.634 160-160 160-88.366 0-160-71.634-160-160zM256 311.121c83.462 0 151.121-67.659 151.121-151.121 0-83.462-67.659-151.121-151.121-151.121-83.462 0-151.121 67.659-151.121 151.121 0 83.462 67.659 151.121 151.121 151.121z" fill="#89939e" fill-rule="nonzero" stroke="none" stroke-width="1" stroke-linecap="butt" stroke-linejoin="miter" stroke-miterlimit="10" stroke-dasharray="" stroke-dashoffset="0" font-family="none" font-weight="none" font-size="none" text-anchor="none" style="mix-blend-mode: normal" data-fill-palette-color="tertiary"></path></g><g transform="matrix(1,0,0,1,132.85470085470084,80)"><svg viewBox="0 0 246.29059829059833 160" height="160" width="246.29059829059833"><g><svg viewBox="0 0 246.29059829059833 160" height="160" width="246.29059829059833"><g><svg viewBox="0 0 246.29059829059833 160" height="160" width="246.29059829059833"><g id="textblocktransform"><svg viewBox="0 0 246.29059829059833 160" height="160" width="246.29059829059833" id="textblock"><g><svg viewBox="0 0 246.29059829059833 160" height="160" width="246.29059829059833"><g transform="matrix(1,0,0,1,0,0)"><svg width="246.29059829059833" viewBox="1.4999991655349731 -35.21538543701172 180.09999084472656 113.71538543701172" height="160" data-palette-color="#89939e"><svg></svg><svg></svg><svg></svg><g class="undefined-text-0" data-fill-palette-color="primary" id="text-0"><path xmlns="http://www.w3.org/2000/svg" d="M15.6 0v0c-0.933 0-1.7-0.293-2.3-0.88-0.6-0.58-0.9-1.303-0.9-2.17v0-29h6.5v29c0 0.867-0.307 1.59-0.92 2.17-0.62 0.587-1.413 0.88-2.38 0.88zM26.75-29.25h-22.2c-0.867 0-1.59-0.267-2.17-0.8-0.587-0.533-0.88-1.233-0.88-2.1v0c0-0.867 0.293-1.56 0.88-2.08 0.58-0.513 1.303-0.77 2.17-0.77v0h22.2c0.867 0 1.593 0.267 2.18 0.8 0.58 0.533 0.87 1.233 0.87 2.1v0c0 0.867-0.29 1.557-0.87 2.07-0.587 0.52-1.313 0.78-2.18 0.78zM38.65 0v0c-0.933 0-1.767-0.293-2.5-0.88-0.733-0.58-1.1-1.303-1.1-2.17v0-28.9c0-0.867 0.29-1.593 0.87-2.18 0.587-0.58 1.313-0.87 2.18-0.87v0h14.4c1.733 0 3.36 0.457 4.88 1.37 1.513 0.92 2.737 2.187 3.67 3.8 0.933 1.62 1.4 3.48 1.4 5.58v0c0 1.267-0.26 2.5-0.78 3.7-0.513 1.2-1.21 2.283-2.09 3.25-0.887 0.967-1.88 1.717-2.98 2.25v0l0.05-1.15c0.933 0.5 1.71 1.09 2.33 1.77 0.613 0.687 1.093 1.42 1.44 2.2 0.353 0.787 0.563 1.63 0.63 2.53v0c0.133 0.833 0.227 1.567 0.28 2.2 0.047 0.633 0.147 1.167 0.3 1.6 0.147 0.433 0.437 0.767 0.87 1v0c0.733 0.433 1.193 1.057 1.38 1.87 0.18 0.82-0.013 1.547-0.58 2.18v0c-0.367 0.433-0.833 0.707-1.4 0.82-0.567 0.12-1.133 0.12-1.7 0-0.567-0.113-1.033-0.27-1.4-0.47v0c-0.567-0.333-1.133-0.827-1.7-1.48-0.567-0.647-1.023-1.52-1.37-2.62-0.353-1.1-0.53-2.517-0.53-4.25v0c0-0.567-0.1-1.093-0.3-1.58-0.2-0.48-0.483-0.897-0.85-1.25-0.367-0.347-0.833-0.613-1.4-0.8-0.567-0.18-1.233-0.27-2-0.27v0h-10.1l0.75-1.15v10.85c0 0.867-0.233 1.59-0.7 2.17-0.467 0.587-1.117 0.88-1.95 0.88zM41.3-16.7l-0.7-1.2h11.65c0.6 0 1.183-0.277 1.75-0.83 0.567-0.547 1.033-1.297 1.4-2.25 0.367-0.947 0.55-1.987 0.55-3.12v0c0-1.467-0.39-2.693-1.17-3.68-0.787-0.98-1.63-1.47-2.53-1.47v0h-11.55l0.6-1.6zM80.8-26.85l1.45-0.3-10.8 25.4c-0.233 0.633-0.59 1.123-1.07 1.47-0.487 0.353-1.013 0.53-1.58 0.53v0c-0.9 0-1.567-0.25-2-0.75-0.433-0.5-0.65-1.117-0.65-1.85v0c0-0.3 0.05-0.617 0.15-0.95v0l12.45-29.9c0.267-0.667 0.677-1.183 1.23-1.55 0.547-0.367 1.137-0.517 1.77-0.45v0c0.6 0 1.16 0.173 1.68 0.52 0.513 0.353 0.887 0.847 1.12 1.48v0l12.3 29.3c0.167 0.433 0.25 0.833 0.25 1.2v0c0 0.9-0.29 1.617-0.87 2.15-0.587 0.533-1.23 0.8-1.93 0.8v0c-0.6 0-1.14-0.183-1.62-0.55-0.487-0.367-0.863-0.867-1.13-1.5v0zM90.2-7.85h-17.2l2.75-5.75h13.5zM122.3-35.1v0c0.833 0 1.56 0.277 2.18 0.83 0.613 0.547 0.92 1.237 0.92 2.07v0c0 0.433-0.1 0.883-0.3 1.35v0l-12.35 28.9c-0.3 0.667-0.723 1.157-1.27 1.47-0.553 0.32-1.113 0.48-1.68 0.48v0c-0.533-0.033-1.05-0.21-1.55-0.53-0.5-0.313-0.883-0.77-1.15-1.37v0l-12.35-29c-0.1-0.2-0.167-0.41-0.2-0.63-0.033-0.213-0.05-0.42-0.05-0.62v0c0-0.967 0.35-1.71 1.05-2.23 0.7-0.513 1.367-0.77 2-0.77v0c1.267 0 2.183 0.65 2.75 1.95v0l10.95 25.75-1.75 0.05 10.05-25.8c0.567-1.267 1.483-1.9 2.75-1.9zM133.7-35v0h16.75c0.867 0 1.593 0.273 2.18 0.82 0.58 0.553 0.87 1.263 0.87 2.13v0c0 0.833-0.29 1.507-0.87 2.02-0.587 0.52-1.313 0.78-2.18 0.78v0h-14l0.45-0.85v9.75l-0.4-0.4h11.7c0.867 0 1.593 0.273 2.18 0.82 0.58 0.553 0.87 1.263 0.87 2.13v0c0 0.833-0.29 1.507-0.87 2.02-0.587 0.52-1.313 0.78-2.18 0.78v0h-11.55l0.25-0.4v10.1l-0.4-0.45h13.95c0.867 0 1.593 0.29 2.18 0.87 0.58 0.587 0.87 1.263 0.87 2.03v0c0 0.833-0.29 1.517-0.87 2.05-0.587 0.533-1.313 0.8-2.18 0.8v0h-16.75c-0.867 0-1.59-0.293-2.17-0.88-0.587-0.58-0.88-1.303-0.88-2.17v0-28.9c0-0.867 0.293-1.593 0.88-2.18 0.58-0.58 1.303-0.87 2.17-0.87zM164.4-5.85h14.15c0.867 0 1.59 0.273 2.17 0.82 0.587 0.553 0.88 1.263 0.88 2.13v0c0 0.833-0.293 1.523-0.88 2.07-0.58 0.553-1.303 0.83-2.17 0.83v0h-16.25c-0.867 0-1.59-0.293-2.17-0.88-0.587-0.58-0.88-1.303-0.88-2.17v0-28.9c0-0.867 0.3-1.593 0.9-2.18 0.6-0.58 1.367-0.87 2.3-0.87v0c0.8 0 1.507 0.29 2.12 0.87 0.62 0.587 0.93 1.313 0.93 2.18v0 26.95z" fill="#89939e" fill-rule="nonzero" stroke="none" stroke-width="1" stroke-linecap="butt" stroke-linejoin="miter" stroke-miterlimit="10" stroke-dasharray="" stroke-dashoffset="0" font-family="none" font-weight="none" font-size="none" text-anchor="none" style="mix-blend-mode: normal" data-fill-palette-color="primary" opacity="1"></path><path xmlns="http://www.w3.org/2000/svg" d="M6.8 4h11.4c1.733 0 3.36 0.5 4.88 1.5 1.513 1 2.737 2.35 3.67 4.05 0.933 1.7 1.4 3.6 1.4 5.7v0c0 2.067-0.467 3.95-1.4 5.65-0.933 1.7-2.157 3.057-3.67 4.07-1.52 1.02-3.147 1.53-4.88 1.53v0h-9.2l0.5-0.9v10.35c0 0.867-0.267 1.59-0.8 2.17-0.533 0.587-1.233 0.88-2.1 0.88v0c-0.833 0-1.517-0.293-2.05-0.88-0.533-0.58-0.8-1.303-0.8-2.17v0-28.9c0-0.867 0.293-1.593 0.88-2.18 0.58-0.58 1.303-0.87 2.17-0.87zM8.95 20.8h9.25c0.633 0 1.25-0.267 1.85-0.8 0.6-0.533 1.1-1.227 1.5-2.08 0.4-0.847 0.6-1.737 0.6-2.67v0c0-0.967-0.2-1.867-0.6-2.7-0.4-0.833-0.9-1.51-1.5-2.03-0.6-0.513-1.217-0.77-1.85-0.77v0h-9.3l0.6-0.9v12.75zM40.15 7.05v28.9c0 0.867-0.317 1.59-0.95 2.17-0.633 0.587-1.367 0.88-2.2 0.88v0c-0.933 0-1.683-0.293-2.25-0.88-0.567-0.58-0.85-1.303-0.85-2.17v0-28.9c0-0.867 0.3-1.593 0.9-2.18 0.6-0.58 1.367-0.87 2.3-0.87v0c0.8 0 1.51 0.29 2.13 0.87 0.613 0.587 0.92 1.313 0.92 2.18zM74.2 4v0c0.8 0 1.45 0.267 1.95 0.8 0.5 0.533 0.75 1.2 0.75 2v0 29.15c0 0.867-0.29 1.59-0.87 2.17-0.587 0.587-1.313 0.88-2.18 0.88v0c-0.433 0-0.873-0.077-1.32-0.23-0.453-0.147-0.797-0.353-1.03-0.62v0l-19.65-24.95 1.3-0.8v23.8c0 0.8-0.257 1.467-0.77 2-0.52 0.533-1.197 0.8-2.03 0.8v0c-0.8 0-1.45-0.267-1.95-0.8-0.5-0.533-0.75-1.2-0.75-2v0-29.15c0-0.867 0.293-1.593 0.88-2.18 0.58-0.58 1.303-0.87 2.17-0.87v0c0.467 0 0.95 0.09 1.45 0.27 0.5 0.187 0.867 0.463 1.1 0.83v0l19.05 24.3-0.85 0.6v-23.2c0-0.8 0.25-1.467 0.75-2 0.5-0.533 1.167-0.8 2-0.8z" fill="#dedede" fill-rule="nonzero" stroke="none" stroke-width="1" stroke-linecap="butt" stroke-linejoin="miter" stroke-miterlimit="10" stroke-dasharray="" stroke-dashoffset="0" font-family="none" font-weight="none" font-size="none" text-anchor="none" style="mix-blend-mode: normal" data-fill-palette-color="secondary" opacity="1"></path><path xmlns="http://www.w3.org/2000/svg" d="M20.25 78.5v0c-2.533 0-4.9-0.467-7.1-1.4-2.2-0.933-4.133-2.227-5.8-3.88-1.667-1.647-2.973-3.553-3.92-5.72-0.953-2.167-1.43-4.5-1.43-7v0c0-2.5 0.477-4.833 1.43-7 0.947-2.167 2.253-4.077 3.92-5.73 1.667-1.647 3.6-2.937 5.8-3.87 2.2-0.933 4.567-1.4 7.1-1.4v0c1.567 0 3.083 0.167 4.55 0.5 1.467 0.333 2.817 0.833 4.05 1.5v0c0.5 0.267 0.877 0.623 1.13 1.07 0.247 0.453 0.37 0.913 0.37 1.38v0c0 0.8-0.267 1.517-0.8 2.15-0.533 0.633-1.217 0.95-2.05 0.95v0c-0.267 0-0.54-0.033-0.82-0.1-0.287-0.067-0.563-0.167-0.83-0.3v0c-0.833-0.367-1.717-0.65-2.65-0.85-0.933-0.2-1.917-0.3-2.95-0.3v0c-2.167 0-4.14 0.54-5.92 1.62-1.787 1.087-3.203 2.537-4.25 4.35-1.053 1.82-1.58 3.83-1.58 6.03v0c0 2.167 0.527 4.167 1.58 6 1.047 1.833 2.463 3.29 4.25 4.37 1.78 1.087 3.753 1.63 5.92 1.63v0c1 0 2.1-0.1 3.3-0.3 1.2-0.2 2.183-0.467 2.95-0.8v0l-0.45 1.5v-8.55l0.85 0.75h-5.55c-0.867 0-1.59-0.283-2.17-0.85-0.587-0.567-0.88-1.283-0.88-2.15v0c0-0.867 0.293-1.583 0.88-2.15 0.58-0.567 1.303-0.85 2.17-0.85v0h8.2c0.867 0 1.583 0.29 2.15 0.87 0.567 0.587 0.85 1.313 0.85 2.18v0 10.6c0 0.667-0.157 1.217-0.47 1.65-0.32 0.433-0.68 0.783-1.08 1.05v0c-1.533 0.933-3.207 1.673-5.02 2.22-1.82 0.553-3.73 0.83-5.73 0.83zM43.7 72.15h14.15c0.867 0 1.593 0.273 2.18 0.82 0.58 0.553 0.87 1.263 0.87 2.13v0c0 0.833-0.29 1.523-0.87 2.07-0.587 0.553-1.313 0.83-2.18 0.83v0h-16.25c-0.867 0-1.59-0.293-2.17-0.88-0.587-0.58-0.88-1.303-0.88-2.17v0-28.9c0-0.867 0.3-1.593 0.9-2.18 0.6-0.58 1.367-0.87 2.3-0.87v0c0.8 0 1.51 0.29 2.13 0.87 0.613 0.587 0.92 1.313 0.92 2.18v0 26.95zM98.35 60.5v0c0 2.5-0.417 4.833-1.25 7-0.833 2.167-2.007 4.073-3.52 5.72-1.52 1.653-3.32 2.947-5.4 3.88-2.087 0.933-4.363 1.4-6.83 1.4v0c-2.467 0-4.733-0.467-6.8-1.4-2.067-0.933-3.857-2.227-5.37-3.88-1.52-1.647-2.697-3.553-3.53-5.72-0.833-2.167-1.25-4.5-1.25-7v0c0-2.5 0.417-4.833 1.25-7 0.833-2.167 2.01-4.077 3.53-5.73 1.513-1.647 3.303-2.937 5.37-3.87 2.067-0.933 4.333-1.4 6.8-1.4v0c2.467 0 4.743 0.467 6.83 1.4 2.08 0.933 3.88 2.223 5.4 3.87 1.513 1.653 2.687 3.563 3.52 5.73 0.833 2.167 1.25 4.5 1.25 7zM91.85 60.5v0c0-2.233-0.45-4.26-1.35-6.08-0.9-1.813-2.133-3.253-3.7-4.32-1.567-1.067-3.383-1.6-5.45-1.6v0c-2.067 0-3.883 0.533-5.45 1.6-1.567 1.067-2.79 2.5-3.67 4.3-0.887 1.8-1.33 3.833-1.33 6.1v0c0 2.233 0.443 4.257 1.33 6.07 0.88 1.82 2.103 3.263 3.67 4.33 1.567 1.067 3.383 1.6 5.45 1.6v0c2.067 0 3.883-0.533 5.45-1.6 1.567-1.067 2.8-2.51 3.7-4.33 0.9-1.813 1.35-3.837 1.35-6.07zM107.15 43h12.6c3.2 0 5.583 0.75 7.15 2.25 1.567 1.5 2.35 3.717 2.35 6.65v0c0 1.567-0.383 2.94-1.15 4.12-0.767 1.187-1.9 2.103-3.4 2.75-1.5 0.653-3.35 0.98-5.55 0.98v0l0.2-2.25c1.033 0 2.217 0.14 3.55 0.42 1.333 0.287 2.627 0.79 3.88 1.51 1.247 0.713 2.28 1.71 3.1 2.99 0.813 1.287 1.22 2.93 1.22 4.93v0c0 2.2-0.357 4-1.07 5.4-0.72 1.4-1.663 2.483-2.83 3.25-1.167 0.767-2.417 1.29-3.75 1.57-1.333 0.287-2.617 0.43-3.85 0.43v0h-12.45c-0.867 0-1.59-0.293-2.17-0.88-0.587-0.58-0.88-1.303-0.88-2.17v0-28.9c0-0.867 0.293-1.593 0.88-2.18 0.58-0.58 1.303-0.87 2.17-0.87zM118.85 48.9v0h-8.9l0.65-0.8v9.05l-0.6-0.45h9c0.967 0 1.833-0.317 2.6-0.95 0.767-0.633 1.15-1.55 1.15-2.75v0c0-1.433-0.357-2.477-1.07-3.13-0.72-0.647-1.663-0.97-2.83-0.97zM119.25 62.6v0h-9.1l0.45-0.4v10.55l-0.5-0.5h9.5c1.533 0 2.75-0.41 3.65-1.23 0.9-0.813 1.35-2.037 1.35-3.67v0c0-1.5-0.3-2.583-0.9-3.25-0.6-0.667-1.317-1.083-2.15-1.25-0.833-0.167-1.6-0.25-2.3-0.25zM139.9 43v0h16.75c0.867 0 1.593 0.273 2.18 0.82 0.58 0.553 0.87 1.263 0.87 2.13v0c0 0.833-0.29 1.507-0.87 2.02-0.587 0.52-1.313 0.78-2.18 0.78v0h-14l0.45-0.85v9.75l-0.4-0.4h11.7c0.867 0 1.593 0.273 2.18 0.82 0.58 0.553 0.87 1.263 0.87 2.13v0c0 0.833-0.29 1.507-0.87 2.02-0.587 0.52-1.313 0.78-2.18 0.78v0h-11.55l0.25-0.4v10.1l-0.4-0.45h13.95c0.867 0 1.593 0.29 2.18 0.87 0.58 0.587 0.87 1.263 0.87 2.03v0c0 0.833-0.29 1.517-0.87 2.05-0.587 0.533-1.313 0.8-2.18 0.8v0h-16.75c-0.867 0-1.59-0.293-2.17-0.88-0.587-0.58-0.88-1.303-0.88-2.17v0-28.9c0-0.867 0.293-1.593 0.88-2.18 0.58-0.58 1.303-0.87 2.17-0.87z" fill="#89939e" fill-rule="nonzero" stroke="none" stroke-width="1" stroke-linecap="butt" stroke-linejoin="miter" stroke-miterlimit="10" stroke-dasharray="" stroke-dashoffset="0" font-family="none" font-weight="none" font-size="none" text-anchor="none" style="mix-blend-mode: normal" data-fill-palette-color="primary" opacity="1"></path></g></svg></g></svg></g></svg></g></svg></g></svg></g></svg></g></svg></g><defs></defs></svg><rect width="512" height="320" fill="none" stroke="none" visibility="hidden"></rect></g></svg></g></svg>