<svg xmlns="http://www.w3.org/2000/svg" version="1.1" xmlns:xlink="http://www.w3.org/1999/xlink" xmlns:svgjs="http://svgjs.dev/svgjs" width="1000" height="356" viewBox="0 0 1000 356"><g transform="matrix(1,0,0,1,-0.6060565648085117,0.6088562221715961)"><svg viewBox="0 0 396 141" data-background-color="#dedede" preserveAspectRatio="xMidYMid meet" height="356" width="1000" xmlns="http://www.w3.org/2000/svg" xmlns:xlink="http://www.w3.org/1999/xlink"><g id="tight-bounds" transform="matrix(1,0,0,1,0.23999839966415948,-0.24114811046683826)"><svg viewBox="0 0 395.52 141.4822962209337" height="141.4822962209337" width="395.52"><g><svg viewBox="0 0 561.9043662951043 200.99999999999997" height="141.4822962209337" width="395.52"><g><rect width="5.551373872796936" height="200.99999999999997" x="214.53239233716477" y="0" fill="#000000" opacity="1" stroke-width="0" stroke="transparent" fill-opacity="1" class="rect-o-0" data-fill-palette-color="primary" rx="1%" id="o-0" data-palette-color="#000000"></rect></g><g transform="matrix(1,0,0,1,234.61615854712647,0.4999999999999858)"><svg viewBox="0 0 327.2882077479778 200" height="200" width="327.2882077479778"><g id="textblocktransform"><svg viewBox="0 0 327.2882077479778 200" height="200" width="327.2882077479778" id="textblock"><g><svg viewBox="0 0 327.2882077479778 200" height="200" width="327.2882077479778"><g transform="matrix(1,0,0,1,0,0)"><svg width="327.2882077479778" viewBox="0.6000003814697266 -35.25 192.1999969482422 114" height="200" data-palette-color="#000000"><svg></svg><svg></svg><svg></svg><g class="undefined-text-0" data-fill-palette-color="primary" id="text-0"><path xmlns="http://www.w3.org/2000/svg" d="M19.45 0h-7.8v-28.9h-11.05v-6.35h29.9v6.35h-11.05zM59.5-10.45l5.7 10.45h-8.5l-6.1-11.25c-0.5-0.867-1.1-1.493-1.8-1.88-0.7-0.38-1.583-0.57-2.65-0.57v0h-3.85v13.7h-7.7v-35.25h16.2c4.133 0 7.26 0.91 9.38 2.73 2.113 1.813 3.17 4.437 3.17 7.87v0c0 2.667-0.74 4.9-2.22 6.7-1.487 1.8-3.58 2.983-6.28 3.55v0c1.833 0.467 3.383 1.783 4.65 3.95zM49.65-19.6c2.233 0 3.85-0.393 4.85-1.18 1-0.78 1.5-2.003 1.5-3.67v0c0-1.7-0.5-2.933-1.5-3.7-1-0.767-2.617-1.15-4.85-1.15v0h-7.45v9.7zM103.75 0h-7.7l-3.35-7.8h-16.4l-3.35 7.8h-7.85l16.2-35.25h6.25zM84.5-26.9l-5.65 13.2h11.3zM118-9.7l11-25.55h7.9l-15.85 35.25h-6.25l-15.9-35.25h8.1zM163.9 0h-24.3v-35.25h24.3v6.05h-16.7v8.25h15.7v6.05h-15.7v8.85h16.7zM192.8 0h-23.55v-35.25h7.8v28.9h15.75z" fill="#000000" fill-rule="nonzero" stroke="none" stroke-width="1" stroke-linecap="butt" stroke-linejoin="miter" stroke-miterlimit="10" stroke-dasharray="" stroke-dashoffset="0" font-family="none" font-weight="none" font-size="none" text-anchor="none" style="mix-blend-mode: normal" data-fill-palette-color="primary" opacity="1"></path><path xmlns="http://www.w3.org/2000/svg" d="M3.5 39.15v-35.25h16.2c3.833 0 6.817 0.967 8.95 2.9 2.133 1.933 3.2 4.633 3.2 8.1v0c0 3.467-1.067 6.167-3.2 8.1-2.133 1.933-5.117 2.9-8.95 2.9v0h-8.4v13.25zM11.3 20h7.4c3.9 0 5.85-1.683 5.85-5.05v0c0-1.733-0.483-3.017-1.45-3.85-0.967-0.833-2.433-1.25-4.4-1.25v0h-7.4zM44.7 39.15h-7.8v-35.25h7.8zM75 26.25v-22.35h7.3v35.25h-5.8l-17.55-22.45v22.45h-7.25v-35.25h5.75z" fill="#000000" fill-rule="nonzero" stroke="none" stroke-width="1" stroke-linecap="butt" stroke-linejoin="miter" stroke-miterlimit="10" stroke-dasharray="" stroke-dashoffset="0" font-family="none" font-weight="none" font-size="none" text-anchor="none" style="mix-blend-mode: normal" data-fill-palette-color="primary" opacity="1"></path><path xmlns="http://www.w3.org/2000/svg" d="M19.9 58.85h13.9v17.25c-1.7 0.833-3.7 1.483-6 1.95-2.3 0.467-4.667 0.7-7.1 0.7v0c-3.733 0-6.967-0.727-9.7-2.18-2.733-1.447-4.833-3.53-6.3-6.25-1.467-2.713-2.2-5.937-2.2-9.67v0c0-3.667 0.723-6.86 2.17-9.58 1.453-2.713 3.53-4.803 6.23-6.27 2.7-1.467 5.85-2.2 9.45-2.2v0c2.533 0 4.893 0.35 7.08 1.05 2.18 0.7 3.987 1.667 5.42 2.9v0l-2.45 5.55c-1.633-1.167-3.223-2.01-4.77-2.53-1.553-0.513-3.23-0.77-5.03-0.77v0c-6.8 0-10.2 3.95-10.2 11.85v0c0 4.067 0.883 7.1 2.65 9.1 1.767 2 4.433 3 8 3v0c1.933 0 3.85-0.25 5.75-0.75v0-7.75h-6.9zM63.95 78.3h-23.55v-35.25h7.8v28.9h15.75zM82.75 78.75c-3.5 0-6.54-0.743-9.12-2.23-2.587-1.48-4.58-3.58-5.98-6.3-1.4-2.713-2.1-5.903-2.1-9.57v0c0-3.667 0.7-6.86 2.1-9.58 1.4-2.713 3.393-4.803 5.98-6.27 2.58-1.467 5.62-2.2 9.12-2.2v0c3.5 0 6.543 0.733 9.13 2.2 2.58 1.467 4.57 3.557 5.97 6.27 1.4 2.72 2.1 5.913 2.1 9.58v0c0 3.667-0.7 6.857-2.1 9.57-1.4 2.72-3.39 4.82-5.97 6.3-2.587 1.487-5.63 2.23-9.13 2.23zM82.75 72.7c2.933 0 5.24-1.033 6.92-3.1 1.687-2.067 2.53-5.05 2.53-8.95v0c0-3.9-0.833-6.877-2.5-8.93-1.667-2.047-3.983-3.07-6.95-3.07v0c-2.967 0-5.273 1.023-6.92 3.07-1.653 2.053-2.48 5.03-2.48 8.93v0c0 3.9 0.833 6.883 2.5 8.95 1.667 2.067 3.967 3.1 6.9 3.1zM128.55 60.05c2.033 0.6 3.61 1.64 4.73 3.12 1.113 1.487 1.67 3.313 1.67 5.48v0c0 2.967-1.09 5.317-3.27 7.05-2.187 1.733-5.197 2.6-9.03 2.6v0h-16.75v-35.25h16.25c3.667 0 6.577 0.817 8.73 2.45 2.147 1.633 3.22 3.867 3.22 6.7v0c0 1.833-0.49 3.44-1.47 4.82-0.987 1.387-2.347 2.397-4.08 3.03zM113.5 49v8.4h7.35c2 0 3.477-0.343 4.43-1.03 0.947-0.68 1.42-1.72 1.42-3.12v0c0-1.467-0.473-2.543-1.42-3.23-0.953-0.68-2.43-1.02-4.43-1.02v0zM121.75 72.35c2.067 0 3.567-0.35 4.5-1.05 0.933-0.7 1.4-1.833 1.4-3.4v0c0-1.567-0.467-2.717-1.4-3.45-0.933-0.733-2.433-1.1-4.5-1.1v0h-8.25v9zM164.65 78.3h-24.3v-35.25h24.3v6.05h-16.7v8.25h15.7v6.05h-15.7v8.85h16.7z" fill="#000000" fill-rule="nonzero" stroke="none" stroke-width="1" stroke-linecap="butt" stroke-linejoin="miter" stroke-miterlimit="10" stroke-dasharray="" stroke-dashoffset="0" font-family="none" font-weight="none" font-size="none" text-anchor="none" style="mix-blend-mode: normal" data-fill-palette-color="primary" opacity="1"></path></g></svg></g></svg></g></svg></g></svg></g><g transform="matrix(1,0,0,1,0,0.4999999999999858)"><svg viewBox="0 0 200 200" height="200" width="200"><g><svg xmlns="http://www.w3.org/2000/svg" xmlns:xlink="http://www.w3.org/1999/xlink" version="1.1" x="0" y="0" viewBox="0 0 100 100" style="enable-background:new 0 0 100 100;" xml:space="preserve" height="200" width="200" class="icon-icon-0" data-fill-palette-color="accent" id="icon-0"><path d="M100 25c0-13.8-11.206-25-25-25-9.326 0-17.383 5.182-21.68 12.769 0-0.006 0.012-0.013 0.012-0.019-1.146-0.109-2.258-0.348-3.43-0.348-20.715 0-37.5 16.785-37.5 37.5 0 7.898 2.466 15.21 6.629 21.24L0 100l29.028-18.945c5.97 4.004 13.147 6.348 20.874 6.348 20.715 0 37.5-16.785 37.5-37.5 0-1.08-0.22-2.094-0.317-3.149C94.751 42.48 100 34.394 100 25zM49.902 74.902c-13.794 0-25-11.206-25-25 0-13.788 11.206-25 25-25 0.037 0 0.073 0.012 0.098 0.012 0-0.023 0.012-0.042 0.012-0.061C50.012 24.902 50 24.951 50 25c0 2.173 0.366 4.236 0.879 6.244l-9.912 9.918c-4.883 4.883-4.883 12.793 0 17.676s12.793 4.883 17.676 0l9.814-9.814c2.062 0.562 4.199 0.952 6.434 0.965C74.842 63.745 63.66 74.902 49.902 74.902zM75 37.5c-6.885 0-12.5-5.609-12.5-12.5S68.115 12.5 75 12.5 87.5 18.109 87.5 25 81.885 37.5 75 37.5z" fill="#000000" data-fill-palette-color="accent"></path></svg></g></svg></g></svg></g><defs></defs></svg><rect width="395.52" height="141.4822962209337" fill="none" stroke="none" visibility="hidden"></rect></g></svg></g></svg>